<svg width="20" height="16" viewBox="0 0 20 16" fill="none" xmlns="http://www.w3.org/2000/svg">
<path d="M19.9942 0.944974C19.9921 0.903724 19.9842 0.864141 19.9758 0.823307C19.9675 0.782057 19.96 0.741641 19.9458 0.702474C19.9412 0.689974 19.9417 0.677057 19.9367 0.664974C19.9262 0.640391 19.9087 0.620807 19.8962 0.597474C19.8762 0.559557 19.8563 0.522891 19.8308 0.488724C19.8067 0.456224 19.7792 0.428307 19.7504 0.399974C19.7221 0.371641 19.6942 0.344141 19.6617 0.319557C19.6275 0.294141 19.5908 0.274141 19.5529 0.254141C19.5296 0.241641 19.5104 0.223724 19.4854 0.213724C19.4733 0.208724 19.46 0.208724 19.4479 0.204141C19.4092 0.189974 19.3696 0.182474 19.3287 0.174141C19.2871 0.165807 19.2467 0.157474 19.2046 0.155391C19.1917 0.155391 19.1796 0.150391 19.1667 0.150391H0.833333C0.82 0.150391 0.8075 0.155807 0.794167 0.156224C0.752917 0.158307 0.713333 0.166224 0.6725 0.174557C0.63125 0.182891 0.590833 0.190391 0.551667 0.204557C0.539167 0.209141 0.52625 0.208724 0.514167 0.213724C0.489583 0.224141 0.47 0.241641 0.446667 0.254141C0.40875 0.274141 0.372083 0.294141 0.337917 0.319557C0.305417 0.343724 0.2775 0.371224 0.249167 0.399974C0.220833 0.428307 0.193333 0.456224 0.16875 0.488724C0.143333 0.522891 0.123333 0.559557 0.103333 0.597474C0.0908333 0.620807 0.0729167 0.639974 0.0629167 0.664974C0.0579167 0.677057 0.0579167 0.689974 0.05375 0.702474C0.0395833 0.741641 0.0320833 0.782057 0.02375 0.823307C0.0158333 0.864141 0.0075 0.903724 0.00541667 0.944974C0.005 0.958307 0 0.970391 0 0.983724V14.3171C0 14.3716 0.00583333 14.4262 0.01625 14.4804C0.02125 14.505 0.0304167 14.5279 0.0375 14.5516C0.0458333 14.58 0.0525 14.6083 0.06375 14.6358C0.0754167 14.6637 0.09125 14.6891 0.105833 14.7158C0.1175 14.7371 0.126667 14.7591 0.140417 14.7796C0.20125 14.8708 0.28 14.9496 0.37125 15.0104C0.391667 15.0241 0.414167 15.0337 0.435833 15.0454C0.462083 15.0596 0.487083 15.0754 0.515 15.0871C0.5425 15.0983 0.57125 15.105 0.599583 15.1133C0.623333 15.1204 0.64625 15.1296 0.670833 15.1346C0.724167 15.1446 0.77875 15.1504 0.833333 15.1504H19.1667C19.2212 15.1504 19.2758 15.1446 19.33 15.1341C19.3546 15.1291 19.3775 15.12 19.4012 15.1129C19.4296 15.1046 19.4583 15.0979 19.4858 15.0866C19.5133 15.075 19.5387 15.0596 19.565 15.045C19.5867 15.0333 19.6087 15.0237 19.6296 15.01C19.7208 14.9487 19.7996 14.8704 19.8604 14.7791C19.8742 14.7587 19.8833 14.7366 19.895 14.7154C19.9096 14.6891 19.9254 14.6637 19.9371 14.6354C19.9483 14.6079 19.955 14.5796 19.9633 14.5512C19.9704 14.5275 19.9796 14.5046 19.9846 14.48C19.9942 14.4262 20 14.3716 20 14.3171V0.983724C20 0.970391 19.995 0.958307 19.9942 0.944974ZM17.1546 1.81706L10.8367 8.13539C10.3754 8.59622 9.625 8.59622 9.16333 8.13539L2.84542 1.81706H17.1546ZM1.66667 2.99581L6.32167 7.65039L1.66667 12.3054V2.99581ZM2.845 13.4837L7.5 8.82872L7.985 9.31372C8.05458 9.38331 8.12667 9.44831 8.20125 9.50914C9.24458 10.36 10.7554 10.36 11.7987 9.50914C11.8733 9.44831 11.9454 9.38331 12.015 9.31372L12.5 8.82872L17.155 13.4837H2.845ZM18.3333 12.3054L13.6783 7.65039L18.3333 2.99581V12.3054Z" fill="#D4AF5E"/>
</svg>
