<svg width="44" height="31" viewBox="0 0 44 31" fill="none" xmlns="http://www.w3.org/2000/svg">
<path d="M43.7681 0.655273H0.738281V15.783H3.74839C2.62136 17.2642 2.73265 19.3928 4.08489 20.7448C4.76905 21.4292 5.65248 21.7959 6.55003 21.8452C6.59927 22.7427 6.96597 23.6262 7.65046 24.3107C8.33462 24.9948 9.21805 25.3615 10.1156 25.4108C10.1648 26.3083 10.5315 27.1917 11.216 27.8762C12.4721 29.1323 14.3532 29.2984 15.7678 28.4869C15.9513 28.9126 16.2169 29.3115 16.5646 29.6589C18.0389 31.1335 20.4384 31.1335 21.9128 29.6589L22.2539 29.3181L22.2683 29.3329C23.7285 30.7928 26.1077 30.7928 27.5722 29.3332L27.6093 29.2961C27.9208 28.9859 28.171 28.6303 28.3535 28.2442C29.8292 29.3352 31.9312 29.2189 33.2739 27.8759C33.9391 27.2111 34.3255 26.3418 34.3757 25.4101C35.2729 25.3605 36.1557 24.9942 36.8395 24.3103C37.5237 23.6265 37.8897 22.7437 37.9393 21.8465C38.871 21.7963 39.7403 21.4099 40.4051 20.7448C41.7655 19.3846 41.869 17.2593 40.7423 15.7826H43.7681V0.655273ZM5.86751 18.9621C5.37606 18.4707 5.37606 17.671 5.86751 17.1792L7.26373 15.783H8.70822C9.06934 16.1414 9.43308 16.5032 9.77188 16.8407L7.65046 18.9621C7.1577 19.4549 6.36028 19.4549 5.86751 18.9621ZM9.43308 22.5277C8.94163 22.0362 8.94163 21.2365 9.43308 20.7451L11.5568 18.6214L13.3394 20.4043L11.216 22.5277C10.7243 23.0192 9.92454 23.0192 9.43308 22.5277ZM14.7816 26.0933C14.2888 26.586 13.4914 26.586 12.999 26.0933C12.5072 25.6018 12.5072 24.8021 12.999 24.3107L15.1224 22.1869L16.9053 23.9699C14.0134 26.8618 15.0282 25.8467 14.7816 26.0933ZM20.1301 27.8762C19.6384 28.3677 18.8386 28.3677 18.3472 27.8762C17.8567 27.3858 17.8557 26.5883 18.3439 26.0966L18.688 25.7525L20.4706 27.5355L20.1301 27.8762ZM38.6225 18.9621C38.1297 19.4546 37.3323 19.4549 36.8395 18.9621L29.9247 12.0473L28.1418 13.8299L35.0569 20.7448C35.5484 21.2365 35.5484 22.0362 35.0569 22.5277C34.5651 23.0192 33.7654 23.0192 33.2739 22.5277L26.3591 15.6129L24.5762 17.3955L31.4913 24.3107C31.9838 24.8034 31.9838 25.6005 31.4913 26.0936C30.9995 26.5847 30.1998 26.5851 29.7084 26.0936C29.7084 26.0936 23.8507 20.2356 22.7936 19.1785L21.0106 20.9614L25.8253 25.7761C26.3112 26.262 26.3063 27.0355 25.8313 27.5092L25.7925 27.5476C25.3109 28.0276 24.5299 28.0286 24.0513 27.5502C17.4549 20.9608 16.2865 19.7701 9.74627 13.2617H3.25956V3.17655H14.216L8.54177 8.85075L11.216 11.525C12.6937 13.003 15.0863 13.0033 16.5646 11.525L19.6361 8.45351C22.8563 10.7637 27.1694 11.134 30.7661 9.32316L38.6225 17.1792C39.1149 17.6719 39.1152 18.4694 38.6225 18.9621ZM41.2468 13.2617H38.2705L31.1643 6.15547L30.3137 6.6873C27.2022 8.63342 23.1192 8.27886 20.3849 5.82521L19.4959 5.02779L14.7816 9.74206C14.2888 10.2348 13.4914 10.2348 12.999 9.74206L12.1073 8.85075L17.7815 3.17655H41.2468V13.2617Z" fill="#D4AF5E"/>
</svg>
