<svg width="44" height="44" viewBox="0 0 44 44" fill="none" xmlns="http://www.w3.org/2000/svg">
<path d="M29.021 20.2971L29.2759 20.0422L34.5748 21.2303L43.027 12.7782L39.4797 5.6836L32.7677 12.3955L31.1831 12.0402L30.8278 10.4555L37.5397 3.74356L30.4451 0.196289L21.993 8.64846L23.1811 13.9473L21.1424 15.9861L5.35402 0.197886H0.00378192V5.54813L15.7922 21.3365L0 37.1286L6.09469 43.2233L20.103 29.215L34.1117 43.2239L43.0298 34.3058L29.021 20.2971ZM25.9444 14.7493L24.7563 9.45023L30.9429 3.26351L33.2843 4.43422L28.0647 9.65378L29.073 14.1505L33.5697 15.1588L38.7893 9.93927L39.96 12.2806L33.7733 18.4672L28.4742 17.2791L25.4548 20.2985L22.9251 17.7688L25.9444 14.7493ZM2.52456 4.50398V2.71866H4.30988L23.6722 22.0809L21.8868 23.8663L2.52456 4.50398ZM6.09469 39.6585L3.56492 37.1287L17.5747 23.1189L20.1044 25.6487L6.09469 39.6585ZM21.8855 27.4327L27.2386 22.0796L39.4649 34.3058L34.1117 39.659L21.8855 27.4327Z" fill="#D4AF5E"/>
</svg>
