<svg width="35" height="44" viewBox="0 0 35 44" fill="none" xmlns="http://www.w3.org/2000/svg">
<path d="M17.1688 22.9661C20.6437 22.9661 23.4707 20.139 23.4707 16.6642C23.4707 13.1893 20.6437 10.3623 17.1688 10.3623C13.694 10.3623 10.8669 13.1893 10.8669 16.6642C10.8669 20.139 13.694 22.9661 17.1688 22.9661ZM17.1688 12.8831C19.2537 12.8831 20.95 14.5793 20.95 16.6642C20.95 18.7491 19.2537 20.4453 17.1688 20.4453C15.0839 20.4453 13.3877 18.7491 13.3877 16.6642C13.3877 14.5793 15.0839 12.8831 17.1688 12.8831Z" fill="#D4AF5E"/>
<path d="M3.83463 20.2377L2.52687 25.1183L7.40747 26.4261L8.26998 29.645L3.41921 38.3576L9.46474 37.8579L12.2401 43.2247L17.1687 34.4476L22.0973 43.2247L24.8726 37.8579L30.9181 38.3576L26.0673 29.645L26.9299 26.4261L31.8105 25.1183L30.5028 20.2377L34.0756 16.6649L30.5 13.0892L31.8047 8.12587L26.9299 6.81961L25.5849 1.80029L20.6753 3.70161L17.1687 0.194824L13.662 3.70161L8.75246 1.80029L7.40747 6.81961L2.53258 8.12587L3.83741 13.0892L0.261719 16.6649L3.83463 20.2377ZM12.3315 37.9136L10.932 35.2073L7.91968 35.4563L10.4956 30.8297L13.5853 30.0018L15.6083 32.078L12.3315 37.9136ZM26.4178 35.4563L23.4055 35.2073L22.006 37.9136L18.7291 32.078L20.7521 30.0018L23.8419 30.8297L26.4178 35.4563ZM5.6084 9.91132L9.46566 8.87772L10.4605 5.16482L14.2832 6.64526L17.1687 3.75967L20.0543 6.64526L23.877 5.16491L24.8719 8.87781L28.7291 9.9114L27.6941 13.8482L30.5108 16.6649L27.6913 19.4844L28.7233 23.3359L24.8718 24.3679L23.8398 28.2195L19.9776 27.1846L17.1687 30.0674L14.3598 27.1846L10.4977 28.2195L9.46566 24.3679L5.61412 23.3359L6.6462 19.4844L3.82665 16.6649L6.64334 13.8482L5.6084 9.91132Z" fill="#D4AF5E"/>
</svg>
