<svg width="31" height="44" viewBox="0 0 31 44" fill="none" xmlns="http://www.w3.org/2000/svg">
<path d="M15.4765 0.194824C6.97278 0.194824 0.0546875 7.11291 0.0546875 15.6167C0.0546875 18.3513 0.78054 21.0384 2.15346 23.3873C3.3619 25.4546 5.04341 27.2198 7.04434 28.5293V37.8738H9.34403C9.75538 40.8915 12.3479 43.2247 15.4765 43.2247C18.6051 43.2247 21.1973 40.8915 21.609 37.8738H23.9087V28.5293C25.9096 27.2198 27.5911 25.4546 28.7996 23.3873C30.1725 21.0384 30.8983 18.3513 30.8983 15.6167C30.8983 7.11291 23.9803 0.194824 15.4765 0.194824V0.194824ZM22.0089 26.7421L21.3874 27.1075V30.31H9.56563V27.1075L8.94417 26.7421C7.04041 25.6217 5.44458 24.0216 4.33003 22.1149C3.18265 20.1517 2.57597 17.9048 2.57597 15.6167C2.57597 8.50323 8.36309 2.7161 15.4765 2.7161C22.5899 2.7161 28.3771 8.50323 28.3771 15.6167C28.3771 17.9048 27.7704 20.1517 26.623 22.1149C25.5085 24.0216 23.913 25.6217 22.0089 26.7421ZM21.3874 35.3526H9.56563V32.8313H21.3877V35.3526H21.3874ZM15.4765 40.7034C13.7422 40.7034 12.2858 39.4936 11.905 37.8738H19.048C18.6672 39.4936 17.2109 40.7034 15.4765 40.7034Z" fill="#D4AF5E"/>
<path d="M21.6196 11.256L23.0237 9.85192L21.2411 8.06897L19.837 9.47307C18.9312 8.82831 17.8771 8.3792 16.7373 8.18649V6.20361H14.216V8.18649C13.0762 8.3792 12.022 8.82863 11.1163 9.4734L9.71215 8.06897L7.9292 9.85192L9.33363 11.256C8.68886 12.1618 8.23976 13.2159 8.04672 14.3558H6.06384V16.877H8.04672C8.23976 18.0169 8.68886 19.071 9.33363 19.9768L7.9292 21.3809L9.71215 23.1638L11.1163 21.7594C12.022 22.4042 13.0762 22.8533 14.216 23.0463V25.0292H16.7373V23.0463C17.8771 22.8533 18.9312 22.4042 19.837 21.7594L21.2411 23.1635L23.0237 21.3809L21.6196 19.9768C22.2644 19.071 22.7135 18.0169 22.9062 16.877H24.8894V14.3558H22.9065C22.7135 13.2159 22.2644 12.1618 21.6196 11.256ZM15.4766 20.631C12.7117 20.631 10.462 18.3816 10.462 15.6164C10.462 12.8512 12.7117 10.6017 15.4766 10.6017C18.2415 10.6017 20.4909 12.8515 20.4909 15.6164C20.4909 18.3813 18.2418 20.631 15.4766 20.631Z" fill="#D4AF5E"/>
<path d="M14.2159 14.356H16.7372V16.8772H14.2159V14.356Z" fill="#D4AF5E"/>
</svg>
