<svg width="14" height="21" viewBox="0 0 14 21" fill="none" xmlns="http://www.w3.org/2000/svg">
<path d="M11.1667 0.150391H2.83333C1.68458 0.150391 0.75 1.08497 0.75 2.23372V18.0671C0.75 19.2158 1.68458 20.1504 2.83333 20.1504H11.1667C12.3154 20.1504 13.25 19.2158 13.25 18.0671V2.23372C13.25 1.08497 12.3154 0.150391 11.1667 0.150391ZM11.5833 18.0671C11.5833 18.2966 11.3967 18.4837 11.1667 18.4837H2.83333C2.60333 18.4837 2.41667 18.2966 2.41667 18.0671V4.73372H11.5833V18.0671ZM11.5833 3.06706H2.41667V2.23372C2.41667 2.00414 2.60333 1.81706 2.83333 1.81706H11.1667C11.3967 1.81706 11.5833 2.00414 11.5833 2.23372V3.06706Z" fill="#D4AF5E"/>
<path d="M7.41667 15.9834H6.58333C6.12333 15.9834 5.75 16.3567 5.75 16.8167C5.75 17.2767 6.12333 17.6501 6.58333 17.6501H7.41667C7.87667 17.6501 8.25 17.2767 8.25 16.8167C8.25 16.3567 7.87667 15.9834 7.41667 15.9834Z" fill="#D4AF5E"/>
<path d="M8.83939 6.64445C8.51397 6.31904 7.98647 6.31904 7.66105 6.64445L3.91105 10.3945C3.58564 10.7199 3.58564 11.2474 3.91105 11.5728C4.07397 11.7357 4.28689 11.817 4.50022 11.817C4.71355 11.817 4.92647 11.7357 5.08939 11.5728L8.83939 7.82279C9.1648 7.49737 9.1648 6.96987 8.83939 6.64445Z" fill="#D4AF5E"/>
<path d="M9.25605 9.56145C8.93064 9.23603 8.40314 9.23603 8.07772 9.56145L6.41105 11.2281C6.08564 11.5535 6.08564 12.081 6.41105 12.4064C6.57397 12.5694 6.78689 12.6506 7.00022 12.6506C7.21355 12.6506 7.42647 12.5694 7.58939 12.4064L9.25605 10.7398C9.58147 10.4144 9.58147 9.88686 9.25605 9.56145Z" fill="#D4AF5E"/>
</svg>
