<svg width="63" height="40" viewBox="0 0 63 40" fill="none" xmlns="http://www.w3.org/2000/svg">
<path d="M62.6855 8.60373L54.5993 0.517578L49.124 5.99294L43.6486 0.517578L26.6506 17.5155L19.9021 10.7671L14.4267 16.2424L8.95139 10.7671L0.865234 18.8532L21.1752 39.1632L26.6506 33.6878L32.1259 39.1632L62.6855 8.60373ZM19.9021 15.9883L24.0399 20.1261L21.1751 22.9909L17.0372 18.8531L19.9021 15.9883ZM6.08634 18.8532L8.95139 15.9882L21.1752 28.212L43.6485 5.73868L46.5136 8.60361L21.1752 33.942L6.08634 18.8532ZM54.5993 5.73868L57.4644 8.60373L32.126 33.942L29.2612 31.0772L54.5993 5.73868Z" fill="black"/>
</svg>
