<svg width="63" height="63" viewBox="0 0 63 63" fill="none" xmlns="http://www.w3.org/2000/svg">
<path d="M57.735 35.8484V0.487305H5.81568V35.8484L0.865234 52.8731V62.1868H62.6855V52.8731L57.735 35.8484ZM9.43797 4.10959H54.1128V34.2953H9.43797V4.10959ZM8.98639 37.9175H54.5643L58.4616 51.32H5.08918L8.98639 37.9175ZM59.0632 58.5645H4.48752V54.9423H59.0632V58.5645Z" fill="black"/>
<path d="M35.3979 45.8862H28.1533V49.5085H35.3979V45.8862Z" fill="black"/>
<path d="M40.0534 11.6078C35.4889 7.06236 28.062 7.06236 23.4975 11.6078L16.6826 18.3945V20.0096L23.4975 26.7963C25.78 29.0694 28.7773 30.2057 31.7755 30.2055C34.7729 30.2052 37.7714 29.0688 40.0534 26.7963L46.8683 20.0096V18.3945L40.0534 11.6078ZM37.4973 24.2297C34.3424 27.3715 29.2086 27.3715 26.0537 24.2297L21.0051 19.2021L26.0537 14.1745C29.2086 11.0326 34.3424 11.0326 37.4973 14.1745L42.5459 19.2021L37.4973 24.2297Z" fill="black"/>
<path d="M31.7754 16.1831C30.111 16.1831 28.7568 17.5372 28.7568 19.2017C28.7568 20.8661 30.111 22.2202 31.7754 22.2202C33.4398 22.2202 34.794 20.8661 34.794 19.2017C34.794 17.5372 33.4398 16.1831 31.7754 16.1831Z" fill="black"/>
</svg>
