<svg width="62" height="59" viewBox="0 0 62 59" fill="none" xmlns="http://www.w3.org/2000/svg">
<path d="M0 0.339844V51.083H19.8419V54.7112H16.2153V58.3336H45.6049V54.7112H41.9782V51.083H61.8203V0.339844H0ZM38.3557 54.7112H23.4644V51.083H38.3558V54.7112H38.3557ZM58.1977 47.4606H3.6224V40.207H20.0479C23.0767 42.4824 26.8387 43.8323 30.91 43.8323C34.9813 43.8323 38.7433 42.4824 41.7721 40.207H58.1976V47.4606H58.1977ZM16.4116 25.7115C16.4116 17.717 22.9155 11.2131 30.91 11.2131C38.9045 11.2131 45.4084 17.717 45.4084 25.7115C45.4084 33.706 38.9045 40.2099 30.91 40.2099C22.9155 40.2099 16.4116 33.706 16.4116 25.7115ZM58.1979 36.5846H45.3973C47.6778 33.5539 49.0311 29.7878 49.0311 25.7115C49.0311 15.7196 40.9021 7.59056 30.9101 7.59056C20.9182 7.59056 12.7892 15.7196 12.7892 25.7115C12.7892 29.7879 14.1426 33.5539 16.4229 36.5846H3.6224V3.96237H58.1977V36.5846H58.1979Z" fill="black"/>
<path d="M41.8993 27.5225V23.9001H38.6616C38.4613 23.0428 38.1232 22.2383 37.6702 21.5116L39.9611 19.2207L37.3997 16.6592L35.1087 18.9502C34.3821 18.4972 33.5776 18.159 32.7203 17.9588V14.7212H29.0979V17.9588C28.2407 18.1591 27.436 18.4973 26.7095 18.9502L24.4185 16.6592L21.8571 19.2207L24.1481 21.5116C23.6952 22.2381 23.357 23.0428 23.1567 23.9001H19.9189V27.5225H23.1567C23.357 28.3797 23.6951 29.1842 24.1481 29.9109L21.857 32.2018L24.4184 34.7633L26.7094 32.4723C27.436 32.9253 28.2405 33.2635 29.0978 33.4637V36.7013H32.7202V33.4637C33.5775 33.2634 34.3821 32.9252 35.1086 32.4723L37.3996 34.7633L39.961 32.2018L37.6701 29.9109C38.123 29.1844 38.4612 28.3797 38.6615 27.5225H41.8993ZM30.9091 30.0516C28.5158 30.0516 26.5687 28.1046 26.5687 25.7112C26.5687 23.3178 28.5158 21.3707 30.9091 21.3707C33.3023 21.3707 35.2494 23.3178 35.2494 25.7112C35.2493 28.1047 33.3022 30.0516 30.9091 30.0516Z" fill="black"/>
</svg>
