<svg width="80" height="80" viewBox="0 0 80 80" fill="none" xmlns="http://www.w3.org/2000/svg">
<path d="M49.0271 15.4391C49.0271 17.2419 48.1318 18.9153 46.6314 19.9154L44.9339 21.0471C45.2422 19.9426 45.4404 18.7437 45.4405 17.4849C45.4405 12.9876 42.9153 9.25206 41.854 7.88057L41.8541 1.82501L38.2677 1.82509L38.2677 7.88065C37.2063 9.25206 34.6812 12.9877 34.6811 17.4849C34.6811 18.7438 34.8794 19.9428 35.1877 21.0473L33.4902 19.9156C31.9901 18.9155 31.0946 17.2421 31.0946 15.4392L31.0946 12.5847L27.5081 12.5847C27.5081 13.8889 27.508 57.1981 27.5081 58.4772C27.5081 61.4819 29.0007 64.2709 31.5008 65.9376L38.2278 70.4223L38.2167 77.2079L41.8032 77.2111L41.8143 70.4754L48.6209 65.9376C51.1141 64.2756 52.6136 61.49 52.6136 58.4773L52.6136 12.5846L49.0272 12.5846L49.0271 15.4391ZM38.2676 17.4849C38.2676 15.1808 39.2101 13.0655 40.0607 11.6253C40.912 13.0659 41.854 15.1811 41.854 17.4849C41.854 19.789 40.9116 21.9044 40.0609 23.3445C39.2097 21.9038 38.2676 19.7886 38.2676 17.4849ZM31.0946 22.6115C31.3893 22.8324 30.8983 22.498 38.2667 27.4103L38.2609 33.8554L33.4902 30.675C31.9901 29.6749 31.0946 28.0015 31.0946 26.1987L31.0946 22.6115ZM31.0946 33.3709C31.3886 33.5913 30.8744 33.2416 38.2569 38.1632L38.2511 44.6084L33.49 41.4344C31.99 40.4344 31.0945 38.7609 31.0945 36.9581L31.0946 33.3709ZM38.2415 55.3614L33.4902 52.194C31.9902 51.194 31.0945 49.5206 31.0945 47.7178V44.1305C31.3892 44.3512 30.8969 44.016 38.2473 48.9164L38.2415 55.3614ZM33.4901 62.9535C31.9901 61.9534 31.0946 60.28 31.0946 58.4772L31.0946 54.8899C31.3894 55.1109 30.8996 54.7772 38.2375 59.6692L38.2317 66.1144L33.4901 62.9535ZM49.0271 58.4772C49.0271 60.2802 48.1314 61.9535 46.6315 62.9534L41.8181 66.1623L41.824 59.7093C49.2597 54.7521 48.7308 55.1115 49.027 54.8895L49.0271 58.4772ZM49.0272 47.7177C49.0273 49.5206 48.1314 51.1942 46.6315 52.194L41.8279 55.3963L41.8337 48.9434C49.2695 43.9861 48.7309 44.352 49.0271 44.13L49.0272 47.7177ZM49.0271 36.9582C49.0271 38.761 48.1315 40.4345 46.6314 41.4345L41.8376 44.6304L41.8434 38.1775C49.2649 33.2297 48.7309 33.5926 49.0271 33.3706L49.0271 36.9582ZM49.0271 26.1986C49.0271 28.0014 48.1317 29.6749 46.6314 30.6749L41.8473 33.8643L41.8531 27.4114C49.2494 22.4805 48.7303 22.8333 49.0271 22.611L49.0271 26.1986Z" fill="#D4AF5E"/>
</svg>
