<svg width="62" height="60" viewBox="0 0 62 60" fill="none" xmlns="http://www.w3.org/2000/svg">
<path d="M61.6586 31.0808C61.6586 19.6246 52.3383 10.3044 40.8817 10.3044H6.88525C5.29465 10.3044 4.00077 9.01005 4.00077 7.41992C4.00077 5.82932 5.29465 4.53544 6.88525 4.53544H34.5044V0.946777H6.88525C3.31575 0.946777 0.412109 3.85041 0.412109 7.41992C0.412109 10.4179 2.4611 12.9454 5.23203 13.6781C5.26428 14.3944 5.31941 15.0949 5.39558 15.7799H0.412109V19.3686H6.03201C6.36751 20.7096 6.80347 21.9717 7.33897 23.1502C8.53659 25.7847 10.2328 28.0136 12.3813 29.7743C16.1088 32.8302 20.1353 33.6307 21.6931 33.8325C22.0165 33.8746 22.2146 33.8881 22.2511 33.8905L22.3067 33.8938H40.8817C44.8451 33.8938 48.0693 37.1184 48.0693 41.0814C48.0693 44.114 46.1806 46.7115 43.5185 47.7657C42.8746 43.9523 39.5509 41.0379 35.5571 41.0379H26.8266V43.7813C26.8266 46.3167 28.0018 48.5816 29.8354 50.0633C28.0018 51.5455 26.8266 53.8103 26.8266 56.3458V59.0891H35.5571C39.7248 59.0891 43.1648 55.9154 43.5891 51.8576H43.6335V51.6754C53.7939 50.3245 61.6586 41.6047 61.6586 31.0808V31.0808ZM30.4952 44.6266H35.5571C37.7426 44.6266 39.5687 46.1971 39.9649 48.269H34.9034C32.7175 48.269 30.8919 46.6984 30.4952 44.6266V44.6266ZM35.5571 55.5H30.4952C30.8919 53.4281 32.7175 51.8576 34.9034 51.8576H39.9649C39.5687 53.9295 37.7426 55.5 35.5571 55.5ZM38.8757 30.3051H28.2303C30.9036 25.1389 30.6667 20.5793 29.8821 17.4784C29.5298 16.0864 29.0433 14.8795 28.5565 13.8931H39.2164C39.7617 14.7066 40.6672 16.2738 41.1948 18.3588C42.206 22.3563 41.4256 26.3711 38.8757 30.3051V30.3051ZM22.1548 30.2738C21.1782 30.1472 17.7517 29.5369 14.6565 26.9991C11.1169 24.0978 9.16274 19.6947 8.83518 13.8931H24.4239C24.9832 14.7281 25.9182 16.3495 26.4392 18.505C27.3939 22.4554 26.6014 26.4211 24.0842 30.3051H22.4333C22.3814 30.3004 22.2861 30.2911 22.1548 30.2738ZM42.9209 30.4995C45.7012 25.2529 45.468 20.6181 44.6736 17.4784C44.3437 16.1752 43.8961 15.0337 43.4405 14.0837C47.9287 14.7566 51.8538 17.171 54.506 20.6148C54.5859 21.3844 54.6812 23.2124 54.1252 25.2838C53.2271 28.6271 51.0701 31.134 47.7081 32.7494C46.3488 31.6336 44.7129 30.8443 42.9209 30.4995ZM50.9071 45.035C51.3916 43.8102 51.658 42.4766 51.658 41.0814C51.658 39.0571 51.0968 37.1619 50.1221 35.5418C54.6565 33.0643 56.6288 29.4682 57.4783 26.6085C57.8634 28.0351 58.0699 29.5341 58.0699 31.0808C58.0699 36.8203 55.2424 41.9117 50.9071 45.035Z" fill="black"/>
<path d="M18.7139 16.3081H22.3025V19.8968H18.7139V16.3081Z" fill="black"/>
</svg>
