<svg width="30" height="62" viewBox="0 0 30 62" fill="none" xmlns="http://www.w3.org/2000/svg">
<path d="M21.0173 7.94309V0.178711H9.05513V7.94309C3.99778 10.2616 0.681641 15.3549 0.681641 20.9947V55.361C0.681641 56.9848 1.34949 58.5712 2.51376 59.7136C3.66894 60.8469 5.18215 61.4595 6.7785 61.4236C8.35499 61.3935 9.78793 60.7408 10.843 59.7049C11.9232 60.768 13.4044 61.4248 15.0362 61.4248C16.6679 61.4248 18.1491 60.768 19.2294 59.7049C20.2843 60.7408 21.7174 61.3935 23.2938 61.4236C24.8867 61.4515 26.4034 60.8469 27.5586 59.7136C28.7229 58.5712 29.3908 56.9848 29.3908 55.361V20.9948C29.3908 15.3549 26.0747 10.2616 21.0173 7.94309ZM17.4286 3.76735V7.35599H12.6438V3.76735H17.4286ZM11.1746 10.9446H18.8978C23.0391 12.5361 25.8021 16.5372 25.8021 20.9948V21.7105H4.27028V20.9948C4.27028 16.5372 7.03329 12.5361 11.1746 10.9446ZM4.27028 36.0651V32.4765H25.8021V36.0651H4.27028ZM25.8021 39.6537V43.2424H4.27028V39.6537H25.8021ZM4.27028 28.8878V25.2992H25.8021V28.8878H4.27028ZM25.0455 57.1518C24.5945 57.5941 24.0141 57.8361 23.4062 57.8361C23.3916 57.8361 23.377 57.8359 23.3623 57.8357C22.0692 57.8109 21.0173 56.7379 21.0173 55.4437H17.4286C17.4286 56.7629 16.3554 57.8362 15.0362 57.8362C13.717 57.8362 12.6438 56.7629 12.6438 55.4437H9.05513C9.05513 56.7379 8.00318 57.8109 6.71007 57.8357C6.69536 57.8359 6.68077 57.8361 6.66617 57.8361C6.0585 57.8361 5.47774 57.5942 5.027 57.1518C4.54612 56.6802 4.2704 56.0274 4.2704 55.361V46.831H25.8022V55.3611C25.8021 56.0274 25.5264 56.6802 25.0455 57.1518Z" fill="black"/>
</svg>
