<svg width="56" height="63" viewBox="0 0 56 63" fill="none" xmlns="http://www.w3.org/2000/svg">
<path d="M28.0222 0.930664L0.734375 8.69031V24.7898C0.734375 33.2332 3.33252 41.3076 8.24771 48.14C13.0579 54.8263 19.6871 59.8049 27.4186 62.5377L28.0222 62.7509L28.6258 62.5376C36.3573 59.8048 42.9867 54.8262 47.7967 48.1398C52.7119 41.3075 55.3101 33.2331 55.3101 24.7898V8.69031L28.0222 0.930664ZM28.0222 51.032C23.688 48.9281 19.9133 45.7473 17.0689 41.7937C14.1477 37.7329 12.3518 33.0667 11.7911 28.1414L28.0222 23.5261L44.2533 28.1415C43.6928 33.0667 41.8969 37.733 38.9755 41.7939C36.1312 45.7475 32.3564 48.9282 28.0222 51.032ZM44.4432 24.4297L28.0222 19.7601L11.6012 24.4297V16.8978L28.0222 12.2283L44.4432 16.8978V24.4297ZM4.35666 24.7898V11.4261L26.2111 5.2116V8.97744L7.97894 14.162V24.7898C7.97894 31.7054 10.1053 38.3168 14.1286 43.9093C17.2736 48.2808 21.4335 51.8115 26.2111 54.1776V58.1695C13.0385 52.4255 4.35666 39.3236 4.35666 24.7898ZM51.6878 24.7898C51.6878 39.3237 43.0059 52.4256 29.8334 58.1695V54.1776C34.6109 51.8115 38.771 48.2808 41.916 43.9093C45.9391 38.3168 48.0655 31.7054 48.0655 24.7898V14.162L29.8334 8.97744V5.2116L51.6878 11.4261V24.7898Z" fill="black"/>
</svg>
