<svg width="56" height="63" viewBox="0 0 56 63" fill="none" xmlns="http://www.w3.org/2000/svg">
<path d="M6.28889 44.0149H11.7223V47.6371H15.3446V22.2812H11.7223V25.9035H8.10003V24.0923C8.10003 13.0404 17.0373 4.04904 28.0226 4.04904C39.0079 4.04904 47.9451 13.0404 47.9451 24.0923V25.9035H44.3228V22.2812H40.7006V47.6371H44.3228V44.0149H47.9451V49.569C47.9451 52.565 45.5077 55.0025 42.5117 55.0025H33.1445C32.3968 52.8944 30.3837 51.3802 28.0226 51.3802C25.0266 51.3802 22.5892 53.8176 22.5892 56.8136C22.5892 59.8096 25.0266 62.247 28.0226 62.247C30.3837 62.247 32.3968 60.7328 33.1445 58.6247H42.5117C47.505 58.6247 51.5674 54.5623 51.5674 49.569V43.7034C53.6754 42.9557 55.1897 40.9426 55.1897 38.5814V31.3369C55.1897 28.9758 53.6754 26.9626 51.5674 26.215V24.0923C51.5674 11.0431 41.0052 0.426758 28.0226 0.426758C15.04 0.426758 4.47775 11.0431 4.47775 24.0923V26.2151C2.3697 26.9627 0.855469 28.9759 0.855469 31.337V38.5816C0.855469 41.5774 3.2929 44.0149 6.28889 44.0149ZM28.0226 58.6247C27.0239 58.6247 26.2114 57.8123 26.2114 56.8136C26.2114 55.8149 27.0239 55.0025 28.0226 55.0025C29.0212 55.0025 29.8337 55.8149 29.8337 56.8136C29.8337 57.8123 29.0212 58.6247 28.0226 58.6247ZM51.5674 31.3369V38.5814C51.5674 39.5801 50.7549 40.3926 49.7563 40.3926H44.3228V29.5257H49.7563C50.7549 29.5257 51.5674 30.3382 51.5674 31.3369ZM4.47775 31.3369C4.47775 30.3382 5.29023 29.5257 6.28889 29.5257H11.7223V40.3926H6.28889C5.29023 40.3926 4.47775 39.5801 4.47775 38.5814V31.3369Z" fill="black"/>
</svg>
