<svg width="62" height="60" viewBox="0 0 62 60" fill="none" xmlns="http://www.w3.org/2000/svg">
<path d="M56.6458 18.8779L58.1777 17.0061C59.1246 15.8492 59.5642 14.3927 59.4156 12.9049C59.2669 11.4172 58.5478 10.0764 57.3908 9.12961C56.234 8.18274 54.7782 7.74288 53.2897 7.89163C51.802 8.04015 50.4611 8.75929 49.5143 9.91625L48.0189 11.7436C46.8711 11.1662 45.6732 10.6749 44.4332 10.2779V4.22287H47.7738V0.600586H25.8793V4.22287H29.2197V10.2779C27.9798 10.6749 26.7819 11.1662 25.6342 11.7436L24.1388 9.91625C23.1919 8.75929 21.8512 8.04027 20.3634 7.89163C18.8759 7.74288 17.4192 8.18262 16.2621 9.12949C15.1052 10.0764 14.386 11.4172 14.2374 12.9049C14.0889 14.3925 14.5285 15.8491 15.4753 17.006L17.0071 18.8778C14.9484 21.5541 13.4191 24.6569 12.5764 28.0293H6.43969V31.6516H11.9516C11.8738 32.4531 11.8328 33.2651 11.8328 34.0866C11.8328 34.648 11.8533 35.2046 11.8899 35.7569H0V39.3792H12.3986C12.7051 40.7957 13.1321 42.1678 13.6683 43.4844H6.43969V47.1067H15.5C19.8971 54.2825 27.8118 59.0804 36.8265 59.0804C50.6082 59.0804 61.8203 47.8682 61.8203 34.0866C61.8203 28.3686 59.8887 23.094 56.6458 18.8779ZM15.4551 34.0866C15.4551 22.3024 25.0422 12.7152 36.8265 12.7152C48.6109 12.7152 58.198 22.3024 58.198 34.0866C58.198 45.8709 48.6109 55.4581 36.8265 55.4581C25.0422 55.4581 15.4551 45.8709 15.4551 34.0866ZM40.811 4.22287V9.41178C39.513 9.20302 38.1825 9.09278 36.8265 9.09278C35.4706 9.09278 34.14 9.2029 32.842 9.41178V4.22287H40.811ZM52.3177 12.2104C52.6518 11.8021 53.1249 11.5484 53.6497 11.496C54.1748 11.443 54.6887 11.5988 55.0968 11.9328C55.9395 12.6225 56.0641 13.8694 55.3744 14.712L54.2045 16.1415C53.2588 15.2253 52.2413 14.3829 51.1609 13.6238L52.3177 12.2104ZM17.8419 13.2648C17.8944 12.7399 18.1481 12.2669 18.5563 11.9328C18.9646 11.5986 19.4792 11.4435 20.0034 11.4959C20.5284 11.5483 21.0015 11.802 21.3355 12.2102L22.4922 13.6237C21.4119 14.3828 20.3944 15.2251 19.4485 16.1413L18.2788 14.7118C17.9445 14.3037 17.7895 13.7898 17.8419 13.2648Z" fill="black"/>
</svg>
