<svg width="62" height="59" viewBox="0 0 62 59" fill="none" xmlns="http://www.w3.org/2000/svg">
<path d="M0 0.339844V51.083H19.8419V54.7112H16.2153V58.3336H45.6049V54.7112H41.9782V51.083H61.8203V0.339844H0ZM38.3557 54.7112H23.4644V51.083H38.3558V54.7112H38.3557ZM58.1977 47.4606H3.6224V40.207H20.0479C23.0767 42.4824 26.8387 43.8323 30.91 43.8323C34.9813 43.8323 38.7433 42.4824 41.7721 40.207H58.1976V47.4606H58.1977ZM16.4116 25.7115C16.4116 17.717 22.9155 11.2131 30.91 11.2131C38.9045 11.2131 45.4084 17.717 45.4084 25.7115C45.4084 33.706 38.9045 40.2099 30.91 40.2099C22.9155 40.2099 16.4116 33.706 16.4116 25.7115ZM58.1979 36.5846H45.3973C47.6778 33.5539 49.0311 29.7878 49.0311 25.7115C49.0311 15.7196 40.9021 7.59056 30.9101 7.59056C20.9182 7.59056 12.7892 15.7196 12.7892 25.7115C12.7892 29.7879 14.1426 33.5539 16.4229 36.5846H3.6224V3.96237H58.1977V36.5846H58.1979Z" fill="black"/>
</svg>
