<svg width="26" height="26" viewBox="0 0 26 26" fill="none" xmlns="http://www.w3.org/2000/svg">
<path fill-rule="evenodd" clip-rule="evenodd" d="M12.6328 10.4087C13.0561 10.4043 13.4686 10.275 13.8184 10.0367C14.1682 9.79833 14.4397 9.46181 14.5986 9.06951C14.7576 8.6772 14.7969 8.24609 14.7116 7.83148C14.6264 7.41687 14.4204 7.03712 14.1195 6.73935C13.8187 6.44159 13.4365 6.2396 13.021 6.15862C12.6055 6.07764 12.1754 6.12133 11.7848 6.2843C11.3941 6.44728 11.0604 6.72226 10.8257 7.0745C10.591 7.42674 10.4657 7.84013 10.4657 8.26342C10.4702 8.83475 10.7006 9.38122 11.1067 9.78314C11.5128 10.1851 12.0615 10.41 12.6328 10.4087ZM12.621 0.0537109C10.1487 0.0537109 7.73202 0.787164 5.67642 2.16067C3.62083 3.53418 2.01868 5.48602 1.07259 7.77008C0.126506 10.0541 -0.121029 12.5677 0.361283 14.9924C0.843594 17.4171 2.03408 19.6446 3.78223 21.3927C5.53037 23.1409 7.75764 24.3312 10.1824 24.8136C12.6071 25.2959 15.1204 25.0482 17.4045 24.1021C19.6886 23.156 21.6408 21.5537 23.0143 19.4981C24.3878 17.4425 25.1209 15.0261 25.1209 12.5539C25.117 9.23967 23.7986 6.06206 21.4549 3.71868C19.1113 1.3753 15.9338 0.0572344 12.6195 0.0537109H12.621ZM12.6388 3.82558C13.812 3.85968 14.9257 4.3503 15.7429 5.1929C16.5601 6.03551 17.0163 7.16403 17.0145 8.33781C16.9919 9.20316 16.7144 10.0427 16.2168 10.751C15.7191 11.4593 15.0235 12.0045 14.2171 12.3192C13.4106 12.6338 12.5293 12.7034 11.6834 12.5192C10.8376 12.3351 10.0649 11.9055 9.46229 11.2841C8.85963 10.6627 8.45381 9.87724 8.29566 9.02617C8.1375 8.1751 8.23406 7.29669 8.57325 6.50027C8.91243 5.70385 9.47917 5.02504 10.2024 4.54933C10.9256 4.07362 11.7731 3.82165 12.6388 3.82558ZM17.5692 14.403C17.0375 14.9614 16.3857 15.3908 15.6631 15.6598C14.9598 15.8841 14.2345 16.0333 13.4997 16.104C13.5724 16.2066 13.6504 16.305 13.7334 16.3994C14.7349 17.361 15.7408 18.3969 16.7393 19.4324C16.897 19.5645 17.005 19.7464 17.0453 19.9481C17.0857 20.1498 17.056 20.3593 16.9612 20.5419C16.863 20.7558 16.7072 20.9378 16.5113 21.0684C16.3154 21.199 16.087 21.2731 15.8517 21.2815C15.7144 21.2755 15.58 21.2392 15.4583 21.1753C15.3366 21.1114 15.2305 21.0214 15.1476 20.9117C14.3917 20.172 13.6217 19.432 12.8814 18.6184C12.6654 18.3965 12.5626 18.4704 12.3718 18.6184C11.6114 19.432 10.8392 20.1717 10.0618 20.9854C9.9088 21.1326 9.71235 21.2267 9.50168 21.2533C9.29101 21.28 9.07736 21.2379 8.89248 21.1334C8.6837 21.0554 8.50509 20.9129 8.3824 20.7268C8.25971 20.5407 8.19928 20.3203 8.20979 20.0976C8.23731 19.8138 8.36907 19.5503 8.57961 19.358C9.57073 18.3225 10.5589 17.361 11.547 16.3994C11.6294 16.3074 11.7036 16.2088 11.7689 16.104C10.4718 16.0382 9.22067 15.6017 8.16393 14.8465C8.03449 14.7725 7.90137 14.6243 7.78377 14.5503C7.56899 14.3729 7.4334 14.1177 7.40677 13.8403C7.38015 13.563 7.46466 13.2862 7.64175 13.0711C7.71186 12.962 7.8028 12.8684 7.90936 12.7944C8.01591 12.7205 8.13598 12.6681 8.26272 12.6406C8.38947 12.6131 8.5204 12.6109 8.648 12.6341C8.77561 12.6572 8.89738 12.7054 9.00638 12.7756C9.11806 12.7927 9.22155 12.8446 9.30223 12.9237C10.2634 13.5855 11.3999 13.9456 12.5668 13.9588C13.7337 13.972 14.8781 13.6373 15.854 12.9974C16.0287 12.8316 16.2529 12.7274 16.4923 12.7013C16.7044 12.6203 16.939 12.6215 17.1508 12.7034C17.3625 12.7854 17.5363 12.9428 17.6387 13.1455C17.7833 13.3271 17.8561 13.5558 17.8433 13.7876C17.8305 14.0194 17.7329 14.2384 17.5692 14.403Z" fill="#D4AF5E"/>
</svg>
