<svg width="21" height="22" viewBox="0 0 21 22" fill="none" xmlns="http://www.w3.org/2000/svg">
<path d="M13.4788 0.776855C9.48916 0.776855 6.24347 4.02255 6.24347 8.01222C6.24347 9.14815 6.51384 10.2194 6.98247 11.1771L5.21706 12.9425C5.21644 12.9429 5.21644 12.9429 5.21603 12.9429C5.21561 12.9429 5.21561 12.9433 5.21561 12.9437L0.853941 17.3054C0.0968633 18.0625 0.0968633 19.2946 0.853941 20.0519L1.43915 20.6371C1.81801 21.016 2.3151 21.2053 2.81262 21.2053C3.31034 21.2053 3.80744 21.016 4.18608 20.6371L10.3144 14.5088C11.2716 14.9774 12.3429 15.2476 13.4788 15.2476C17.4685 15.2476 20.7142 12.0019 20.7142 8.01222C20.7142 4.02255 17.4685 0.776855 13.4788 0.776855ZM2.98199 19.4334C2.88806 19.5268 2.73697 19.5268 2.64283 19.4334L2.05762 18.8482C1.9641 18.7547 1.9641 18.6026 2.05762 18.5091L5.81786 14.7488L6.74244 15.6732L2.98199 19.4334ZM7.94591 14.4695L7.02154 13.5451L7.92472 12.642C8.20423 12.977 8.51367 13.2864 8.84867 13.5659L7.94591 14.4695ZM13.4788 13.5451C10.4281 13.5451 7.94591 11.063 7.94591 8.01222C7.94591 4.96146 10.4281 2.47929 13.4788 2.47929C16.5296 2.47929 19.0118 4.96146 19.0118 8.01222C19.0118 11.063 16.5296 13.5451 13.4788 13.5451Z" fill="#ffffff"/>
</svg>
