<svg width="26" height="26" viewBox="0 0 26 26" fill="none" xmlns="http://www.w3.org/2000/svg">
<path fill-rule="evenodd" clip-rule="evenodd" d="M25.375 12.5537C25.375 19.4573 19.7786 25.0537 12.875 25.0537C5.97144 25.0537 0.375 19.4573 0.375 12.5537C0.375 5.65015 5.97144 0.0537109 12.875 0.0537109C19.7786 0.0537109 25.375 5.65015 25.375 12.5537ZM13.3839 18.0361H12.4028C12.4028 18.0361 10.2381 18.1664 8.33184 16.1817C6.25289 14.017 4.41681 9.72137 4.41681 9.72137C4.41681 9.72137 4.31097 9.43972 4.42595 9.30358C4.55519 9.1505 4.90725 9.14069 4.90725 9.14069L7.25248 9.12532C7.25248 9.12532 7.47352 9.16231 7.63172 9.2784C7.76207 9.37421 7.83516 9.55337 7.83516 9.55337C7.83516 9.55337 8.21418 10.512 8.71621 11.3792C9.69597 13.0722 10.1523 13.4425 10.485 13.2612C10.9696 12.9967 10.8243 10.8678 10.8243 10.8678C10.8243 10.8678 10.8333 10.0951 10.5804 9.75101C10.3845 9.48429 10.0151 9.40652 9.85194 9.38469C9.72003 9.36708 9.93662 9.0607 10.2174 8.92322C10.6394 8.71644 11.3848 8.70463 12.2654 8.71376C12.9514 8.72067 13.1489 8.76345 13.4171 8.8283C14.0396 8.97858 14.0201 9.46016 13.9783 10.4992C13.9658 10.8097 13.9512 11.1699 13.9512 11.586C13.9512 11.6796 13.9485 11.7794 13.9457 11.882C13.9312 12.4142 13.9145 13.0234 14.2648 13.2498C14.4444 13.3657 14.8838 13.2672 15.9827 11.401C16.5037 10.5166 16.8943 9.47671 16.8943 9.47671C16.8943 9.47671 16.9796 9.29132 17.1122 9.21178C17.2479 9.13067 17.4309 9.15562 17.4309 9.15562L19.8989 9.14025C19.8989 9.14025 20.6404 9.05179 20.7605 9.38647C20.8864 9.73786 20.4833 10.5583 19.4751 11.9022C18.5175 13.1784 18.0522 13.6475 18.096 14.063C18.1279 14.3659 18.4303 14.6403 19.0098 15.1781C20.2246 16.3057 20.5484 16.8978 20.6254 17.0385C20.6316 17.0499 20.6362 17.0584 20.6395 17.0639C21.1832 17.9654 20.0366 18.0361 20.0366 18.0361L17.8447 18.0666C17.8447 18.0666 17.3736 18.16 16.7537 17.7341C16.4295 17.5116 16.1126 17.1483 15.8106 16.8021C15.349 16.2729 14.9223 15.7837 14.5582 15.8992C13.9472 16.093 13.9664 17.4095 13.9664 17.4095C13.9664 17.4095 13.9709 17.6907 13.8316 17.8404C13.6803 18.0035 13.3839 18.0361 13.3839 18.0361Z" fill="#D4AF5E"/>
</svg>
