<svg width="53" height="53" viewBox="0 0 53 53" fill="none" xmlns="http://www.w3.org/2000/svg">
<path d="M32.2639 10.4615C32.2639 11.6549 31.6713 12.7627 30.678 13.4247L29.5543 14.1738C29.7584 13.4427 29.8896 12.6491 29.8897 11.8158C29.8897 8.8387 28.218 6.36584 27.5155 5.45795L27.5155 1.44932L25.1414 1.44938L25.1414 5.458C24.4389 6.36584 22.7673 8.83875 22.7672 11.8158C22.7672 12.6491 22.8985 13.4428 23.1026 14.174L21.9789 13.4248C20.9859 12.7628 20.3931 11.655 20.393 10.4616L20.393 8.57194L18.0189 8.57194C18.0189 9.43528 18.0188 38.1049 18.0189 38.9516C18.0189 40.9406 19.0069 42.7869 20.6619 43.8902L25.115 46.859L25.1077 51.3509L27.4818 51.353L27.4892 46.8941L31.995 43.8902C33.6454 42.79 34.638 40.946 34.6381 38.9517L34.6381 8.57188L32.2639 8.57188L32.2639 10.4615ZM25.1414 11.8158C25.1414 10.2905 25.7653 8.89024 26.3284 7.93685C26.8919 8.89052 27.5155 10.2907 27.5155 11.8158C27.5155 13.341 26.8917 14.7413 26.3285 15.6947C25.765 14.7409 25.1414 13.3408 25.1414 11.8158ZM20.393 15.2094C20.5881 15.3557 20.2631 15.1343 25.1408 18.3861L25.1369 22.6526L21.9789 20.5473C20.9859 19.8852 20.3931 18.7775 20.3931 17.5841L20.393 15.2094ZM20.393 22.3319C20.5877 22.4778 20.2473 22.2463 25.1343 25.5043L25.1305 29.7709L21.9787 27.6697C20.9858 27.0077 20.393 25.8999 20.393 24.7065L20.393 22.3319ZM25.1241 36.8891L21.9789 34.7923C20.9859 34.1303 20.393 33.0226 20.393 31.8292L20.393 29.4544C20.588 29.6006 20.2622 29.3787 25.128 32.6226L25.1241 36.8891ZM21.9788 41.9148C20.9858 41.2527 20.393 40.145 20.393 38.9516L20.393 36.5769C20.5882 36.7232 20.2639 36.5023 25.1215 39.7407L25.1176 44.0072L21.9788 41.9148ZM32.2639 38.9516C32.2639 40.1451 31.671 41.2528 30.678 41.9147L27.4917 44.0389L27.4956 39.7672C32.4179 36.4857 32.0677 36.7236 32.2638 36.5766L32.2639 38.9516ZM32.2639 31.8291C32.264 33.0226 31.6709 34.1305 30.678 34.7923L27.4982 36.9122L27.502 32.6405C32.4244 29.3589 32.0678 29.6011 32.2639 29.4541L32.2639 31.8291ZM32.2639 24.7066C32.2639 25.9 31.6711 27.0078 30.678 27.6698L27.5046 29.7854L27.5085 25.5137C32.4213 22.2384 32.0678 22.4786 32.2639 22.3317L32.2639 24.7066ZM32.2639 17.584C32.2639 18.7774 31.6711 19.8852 30.678 20.5472L27.511 22.6585L27.5149 18.3868C32.411 15.1227 32.0675 15.3563 32.2639 15.2091V17.584Z" fill="black"/>
</svg>
