<svg width="41" height="40" viewBox="0 0 41 40" fill="none" xmlns="http://www.w3.org/2000/svg">
<path d="M40.6651 20.9196C40.6651 13.3359 34.4954 7.16618 26.9114 7.16618H4.40663C3.3537 7.16618 2.49718 6.30936 2.49718 5.25673C2.49718 4.20379 3.3537 3.34728 4.40663 3.34728H22.6898V0.97168H4.40663C2.04371 0.97168 0.121582 2.89381 0.121582 5.25673C0.121582 7.24135 1.47796 8.91447 3.31225 9.39949C3.33359 9.87368 3.37009 10.3374 3.42051 10.7908H0.121582V13.1664H3.84181C4.0639 14.0542 4.3525 14.8897 4.70698 15.6698C5.49978 17.4137 6.62262 18.8892 8.04489 20.0547C10.5124 22.0777 13.1778 22.6076 14.2091 22.7412C14.4231 22.769 14.5543 22.778 14.5784 22.7796L14.6152 22.7817H26.9114C29.5351 22.7817 31.6694 24.9164 31.6694 27.5397C31.6694 29.5472 30.4191 31.2668 28.6569 31.9646C28.2307 29.4402 26.0305 27.511 23.3867 27.511H17.6073V29.327C17.6073 31.0054 18.3852 32.5047 19.599 33.4855C18.3852 34.4667 17.6073 35.966 17.6073 37.6444V39.4604H23.3867C26.1455 39.4604 28.4228 37.3595 28.7036 34.6733H28.733V34.5527C35.4589 33.6584 40.6651 27.8862 40.6651 20.9196V20.9196ZM20.0358 29.8866H23.3867C24.8334 29.8866 26.0422 30.9262 26.3045 32.2977H22.9539C21.5069 32.2977 20.2984 31.2581 20.0358 29.8866V29.8866ZM23.3867 37.0845H20.0358C20.2984 35.713 21.5069 34.6733 22.9539 34.6733H26.3045C26.0422 36.0449 24.8334 37.0845 23.3867 37.0845ZM25.5835 20.4061H18.5365C20.3061 16.9863 20.1493 13.9679 19.63 11.9152C19.3967 10.9937 19.0747 10.1948 18.7524 9.54178H25.809C26.17 10.0803 26.7694 11.1178 27.1187 12.498C27.788 15.1442 27.2715 17.8019 25.5835 20.4061V20.4061ZM14.5147 20.3854C13.8682 20.3016 11.5999 19.8976 9.55098 18.2177C7.20786 16.2971 5.91427 13.3823 5.69744 9.54178H16.0168C16.387 10.0945 17.006 11.1679 17.3509 12.5948C17.9828 15.2098 17.4582 17.835 15.7919 20.4061H14.699C14.6647 20.403 14.6016 20.3968 14.5147 20.3854ZM28.2613 20.5348C30.1018 17.0617 29.9474 13.9936 29.4216 11.9152C29.2032 11.0525 28.9069 10.2968 28.6053 9.66798C31.5763 10.1134 34.1746 11.7117 35.9303 13.9914C35.9832 14.5008 36.0463 15.7109 35.6782 17.0821C35.0837 19.2953 33.6559 20.9549 31.4303 22.0242C30.5305 21.2855 29.4476 20.7631 28.2613 20.5348ZM33.5479 30.1569C33.8687 29.3462 34.045 28.4634 34.045 27.5397C34.045 26.1997 33.6735 24.9451 33.0283 23.8727C36.0299 22.2327 37.3356 19.8521 37.8979 17.9591C38.1528 18.9034 38.2896 19.8957 38.2896 20.9196C38.2896 24.719 36.4178 28.0894 33.5479 30.1569Z" fill="black"/>
<path d="M12.2373 11.1396H14.6129V13.5152H12.2373V11.1396Z" fill="black"/>
</svg>
