<svg width="20" height="41" viewBox="0 0 20 41" fill="none" xmlns="http://www.w3.org/2000/svg">
<path d="M14.2805 5.24431V0.104492H6.36188V5.24431C3.01405 6.7791 0.818848 10.1508 0.818848 13.8842V36.6337C0.818848 37.7087 1.26094 38.7588 2.03166 39.5151C2.79636 40.2653 3.79807 40.6708 4.85481 40.647C5.8984 40.6271 6.84698 40.195 7.5454 39.5093C8.26045 40.213 9.24101 40.6478 10.3212 40.6478C11.4014 40.6478 12.3819 40.213 13.097 39.5093C13.7953 40.195 14.744 40.6271 15.7875 40.647C16.8419 40.6655 17.846 40.2653 18.6107 39.5151C19.3814 38.7588 19.8235 37.7087 19.8235 36.6337V13.8842C19.8235 10.1508 17.6284 6.7791 14.2805 5.24431V5.24431ZM11.9049 2.48008V4.85566H8.73747V2.48008H11.9049ZM7.7649 7.23125H12.8775C15.6189 8.28474 17.4479 10.9334 17.4479 13.8842V14.358H3.19443V13.8842C3.19443 10.9334 5.02348 8.28474 7.7649 7.23125V7.23125ZM3.19443 23.8604V21.4848H17.4479V23.8604H3.19443ZM17.4479 26.2359V28.6115H3.19443V26.2359H17.4479ZM3.19443 19.1092V16.7336H17.4479V19.1092H3.19443ZM16.9471 37.8192C16.6486 38.112 16.2644 38.2722 15.8619 38.2722C15.8523 38.2722 15.8426 38.2721 15.8329 38.2719C14.9769 38.2555 14.2805 37.5452 14.2805 36.6885H11.9049C11.9049 37.5618 11.1945 38.2722 10.3212 38.2722C9.44793 38.2722 8.73747 37.5618 8.73747 36.6885H6.36188C6.36188 37.5452 5.66552 38.2555 4.80952 38.2719C4.79978 38.2721 4.79011 38.2722 4.78045 38.2722C4.37819 38.2722 3.99374 38.112 3.69536 37.8192C3.37704 37.507 3.19451 37.0749 3.19451 36.6337V30.9871H17.448V36.6338C17.448 37.0749 17.2654 37.507 16.9471 37.8192Z" fill="black"/>
</svg>
