<svg width="37" height="41" viewBox="0 0 37 41" fill="none" xmlns="http://www.w3.org/2000/svg">
<path d="M36.5215 5.28971C35.6072 4.6091 33.6251 3.2988 30.6232 2.17071C26.9741 0.799593 22.9519 0.104492 18.6679 0.104492C14.3839 0.104492 10.3617 0.799593 6.71284 2.17071C3.71056 3.2988 1.72867 4.6091 0.814383 5.28979L0.335938 5.64597V7.94627L1.64711 7.80943C3.06051 7.66199 7.96621 7.19154 14.3621 7.03174V13.7895H15.3572V40.6481H21.9787V13.7895H22.9737V7.03174C29.3698 7.19162 34.2754 7.66199 35.6887 7.80943L36.9999 7.94627V5.64597L36.5215 5.28971ZM19.603 38.2724H17.7329V13.7895H19.603V38.2724ZM21.8073 4.63033L20.598 4.60855V11.4138H16.7379V4.60855L15.5285 4.63033C11.774 4.69811 8.49414 4.87406 5.97062 5.05318C8.79719 3.7763 13.0504 2.48017 18.6679 2.48017C24.2851 2.48017 28.5385 3.7763 31.3651 5.0531C28.8416 4.87406 25.5614 4.69819 21.8073 4.63033Z" fill="black"/>
</svg>
