<svg width="56" height="62" viewBox="0 0 56 62" fill="none" xmlns="http://www.w3.org/2000/svg">
<path d="M55.0058 7.92867C53.6247 6.90052 50.6305 4.92113 46.0957 3.217C40.5832 1.14574 34.5072 0.0957031 28.0356 0.0957031C21.5641 0.0957031 15.488 1.14574 9.97593 3.217C5.44058 4.92113 2.44668 6.90052 1.06553 7.92879L0.342773 8.46685V11.9417L2.32347 11.735C4.45861 11.5123 11.8693 10.8016 21.5312 10.5602V20.7687H23.0343V61.3422H33.037V20.7687H34.5402V10.5602C44.2023 10.8018 51.6129 11.5123 53.7479 11.735L55.7286 11.9417V8.46685L55.0058 7.92867ZM29.4482 57.7534H26.6232V20.7687H29.4482V57.7534ZM32.7782 6.93258L30.9513 6.89968V17.1799H25.1201V6.89968L23.2932 6.93258C17.6215 7.03497 12.6668 7.30077 8.85471 7.57136C13.1246 5.64245 19.5496 3.68448 28.0356 3.68448C36.5212 3.68448 42.9465 5.64245 47.2164 7.57124C43.4044 7.30077 38.4492 7.03509 32.7782 6.93258Z" fill="black"/>
</svg>
