<svg width="34" height="44" viewBox="0 0 34 44" fill="none" xmlns="http://www.w3.org/2000/svg">
<path d="M16.9071 23.5027C20.382 23.5027 23.209 20.6757 23.209 17.2008C23.209 13.726 20.382 10.8989 16.9071 10.8989C13.4322 10.8989 10.6052 13.726 10.6052 17.2008C10.6052 20.6757 13.4322 23.5027 16.9071 23.5027ZM16.9071 13.4197C18.992 13.4197 20.6882 15.1159 20.6882 17.2008C20.6882 19.2857 18.992 20.9819 16.9071 20.9819C14.8222 20.9819 13.126 19.2857 13.126 17.2008C13.126 15.1159 14.8222 13.4197 16.9071 13.4197Z" fill="#D4AF5E"/>
<path d="M3.57292 20.7744L2.26515 25.655L7.14575 26.9627L8.00826 30.1817L3.1575 38.8942L9.20302 38.3945L11.9784 43.7613L16.9069 34.9842L21.8356 43.7613L24.6109 38.3945L30.6564 38.8942L25.8056 30.1817L26.6681 26.9627L31.5487 25.655L30.2411 20.7744L33.8139 17.2015L30.2383 13.6259L31.543 8.66249L26.6681 7.35624L25.3231 2.33691L20.4136 4.23823L16.907 0.731445L13.4003 4.23823L8.49074 2.33691L7.14575 7.35624L2.27086 8.66249L3.57569 13.6259L0 17.2015L3.57292 20.7744ZM12.0698 38.4502L10.6703 35.7439L7.65796 35.9929L10.2338 31.3663L13.3236 30.5384L15.3466 32.6146L12.0698 38.4502ZM26.1561 35.9929L23.1438 35.7439L21.7443 38.4502L18.4674 32.6146L20.4904 30.5384L23.5802 31.3663L26.1561 35.9929ZM5.34668 10.4479L9.20394 9.41435L10.1988 5.70145L14.0214 7.18188L16.907 4.29629L19.7926 7.18188L23.6153 5.70153L24.6102 9.41443L28.4674 10.448L27.4324 14.3849L30.2491 17.2015L27.4296 20.021L28.4616 23.8725L24.6101 24.9045L23.578 28.7561L19.7159 27.7212L16.9069 30.604L14.0981 27.7212L10.2359 28.7561L9.20394 24.9045L5.3524 23.8725L6.38448 20.021L3.56493 17.2015L6.38162 14.3849L5.34668 10.4479Z" fill="#D4AF5E"/>
</svg>
