<svg width="26" height="26" viewBox="0 0 26 26" fill="none" xmlns="http://www.w3.org/2000/svg">
<path fill-rule="evenodd" clip-rule="evenodd" d="M15.4301 12.5538C15.4215 13.023 15.2744 13.479 15.0073 13.8649C14.7403 14.2509 14.3652 14.5495 13.9292 14.723C13.4931 14.8966 13.0155 14.9377 12.5563 14.8408C12.0971 14.7439 11.6767 14.5137 11.348 14.1787C11.0192 13.8438 10.7967 13.419 10.7084 12.958C10.6201 12.4971 10.6699 12.02 10.8515 11.5873C11.0332 11.1545 11.3386 10.785 11.7295 10.5253C12.1203 10.2655 12.5792 10.1274 13.0485 10.1275C13.6852 10.1362 14.2927 10.3961 14.7388 10.8505C15.1848 11.305 15.4333 11.917 15.4301 12.5538ZM18.6191 8.28922C18.5031 7.98331 18.3205 7.7066 18.0846 7.47997C17.8598 7.24044 17.5768 7.06371 17.2632 6.96585C16.8367 6.81683 16.3878 6.74164 15.936 6.74468C14.9758 6.66372 14.0116 6.63945 13.0485 6.67144C12.0852 6.63944 11.1208 6.6637 10.1603 6.74468C9.70976 6.74188 9.26207 6.81706 8.83678 6.96585C8.5229 7.06353 8.23969 7.24028 8.01472 7.47997C7.77908 7.70687 7.59653 7.9835 7.48016 8.28922C7.3251 8.73906 7.24197 9.21011 7.23383 9.68585C7.19928 10.4211 7.19193 10.642 7.19193 12.5538C7.19193 14.4655 7.19928 14.6864 7.23383 15.4217C7.24197 15.8974 7.3251 16.3685 7.48016 16.8183C7.59653 17.124 7.77908 17.4007 8.01472 17.6276C8.23952 17.8671 8.52246 18.0438 8.83604 18.1417C9.26254 18.2907 9.71148 18.3659 10.1632 18.3628C11.1235 18.4438 12.0876 18.4681 13.0507 18.4361C14.0141 18.4681 14.9785 18.4438 15.939 18.3628C16.3907 18.3659 16.8397 18.2907 17.2662 18.1417C17.5716 18.0271 17.8498 17.8504 18.0832 17.6225C18.3166 17.3947 18.5001 17.1208 18.6221 16.8183C18.7771 16.3685 18.8602 15.8974 18.8684 15.4217C18.9029 14.6864 18.9103 14.4655 18.9103 12.5538C18.9103 10.642 18.9029 10.4211 18.8684 9.68585C18.8604 9.21003 18.777 8.73892 18.6213 8.28922H18.6191ZM13.0485 16.2302C12.3211 16.2317 11.6096 16.0172 11.004 15.6141C10.3984 15.211 9.92607 14.6371 9.64668 13.9655C9.36729 13.2938 9.29344 12.5544 9.43446 11.8407C9.57549 11.1271 9.92506 10.4714 10.4389 9.95655C10.9528 9.44166 11.6079 9.09085 12.3212 8.9484C13.0346 8.80595 13.7742 8.87859 14.4464 9.15664C15.1186 9.43468 15.6932 9.90543 16.0975 10.5102C16.5018 11.1149 16.7176 11.8263 16.7177 12.5538C16.7204 13.0367 16.6274 13.5151 16.444 13.9619C16.2607 14.4087 15.9907 14.8149 15.6495 15.1567C15.3084 15.4986 14.9029 15.7695 14.4564 15.9538C14.01 16.138 13.5315 16.232 13.0485 16.2302ZM16.8632 9.6126C16.635 9.60166 16.4195 9.50426 16.2602 9.34046C16.1009 9.17666 16.0097 8.95855 16.0051 8.73011C16.0018 8.61536 16.0215 8.50106 16.0631 8.39406C16.1047 8.28706 16.1673 8.18991 16.2473 8.10756C16.3273 8.0252 16.423 7.95982 16.5287 7.91512C16.6344 7.87041 16.7481 7.8469 16.8629 7.8469C16.9777 7.8469 17.0913 7.87041 17.197 7.91512C17.3028 7.95982 17.3985 8.0252 17.4784 8.10756C17.5584 8.18991 17.6211 8.28706 17.6627 8.39406C17.7042 8.50106 17.7239 8.61536 17.7206 8.73011C17.7162 8.95848 17.6252 9.17665 17.466 9.34046C17.3069 9.50427 17.0914 9.60165 16.8632 9.6126ZM13.0485 0.0538294C10.574 0.0430578 8.15191 0.767095 6.08916 2.13404C4.0264 3.50099 2.41579 5.44964 1.46134 7.73273C0.506899 10.0158 0.25158 12.5302 0.727732 14.9585C1.20388 17.3869 2.39008 19.6193 4.13605 21.3729C5.88201 23.1265 8.10918 24.3228 10.5354 24.8096C12.9616 25.2963 15.4778 25.0518 17.765 24.1073C20.0523 23.1628 22.0077 21.5606 23.3836 19.5038C24.7596 17.4471 25.4941 15.0283 25.4941 12.5538C25.4983 10.9157 25.1796 9.29286 24.5563 7.77797C23.933 6.26308 23.0173 4.8861 21.8615 3.72525C20.7057 2.56441 19.3325 1.64234 17.8203 1.01244C16.3081 0.382527 14.6866 0.0568188 13.0485 0.0538294ZM20.1515 15.4949C20.1457 16.0981 20.0334 16.6958 19.8198 17.2599C19.6353 17.7305 19.3538 18.1568 18.9937 18.5115C18.6335 18.8662 18.2028 19.1413 17.7294 19.3186C17.1888 19.5775 16.5941 19.7036 15.9949 19.6862C15.2324 19.6862 14.989 19.7595 13.0485 19.7595C11.1081 19.7595 10.864 19.6862 10.1015 19.6862C9.50227 19.7036 8.90757 19.5775 8.36692 19.3186C7.88427 19.1587 7.44927 18.8802 7.10149 18.5093C6.74834 18.15 6.4684 17.726 6.27722 17.2599C6.06332 16.6959 5.95081 16.0981 5.94487 15.4949C5.90958 14.7596 5.90149 14.539 5.90149 12.5538C5.90149 10.5685 5.90958 10.3479 5.94487 9.6126C5.95062 9.00943 6.06288 8.41173 6.27648 7.84762C6.46766 7.38131 6.74789 6.95731 7.10149 6.5982C7.44927 6.22731 7.88427 5.94884 8.36692 5.78895C8.90757 5.53 9.50227 5.40395 10.1015 5.42131C10.864 5.42131 11.1074 5.34806 13.0485 5.34806C14.9897 5.34806 15.2324 5.42131 15.9949 5.42131C16.5941 5.40395 17.1888 5.53 17.7294 5.78895C18.2122 5.94898 18.6474 6.22742 18.9956 6.5982C19.3487 6.95753 19.6287 7.38149 19.8198 7.84762C20.0334 8.41173 20.1457 9.00943 20.1515 9.6126C20.1868 10.3479 20.1948 10.5685 20.1948 12.5538C20.1948 14.539 20.1868 14.7596 20.1515 15.4949Z" fill="#D4AF5E"/>
</svg>
