<svg width="21" height="16" viewBox="0 0 21 16" fill="none" xmlns="http://www.w3.org/2000/svg">
<path d="M20.3614 1.02896C20.3593 0.987708 20.3514 0.948125 20.343 0.907292C20.3347 0.866042 20.3272 0.825625 20.313 0.786458C20.3084 0.773958 20.3089 0.761042 20.3039 0.748958C20.2934 0.724375 20.2759 0.704792 20.2634 0.681458C20.2434 0.643542 20.2234 0.606875 20.198 0.572708C20.1739 0.540208 20.1464 0.512292 20.1176 0.483958C20.0893 0.455625 20.0614 0.428125 20.0289 0.403542C19.9947 0.378125 19.958 0.358125 19.9201 0.338125C19.8968 0.325625 19.8776 0.307708 19.8526 0.297708C19.8405 0.292708 19.8272 0.292708 19.8151 0.288125C19.7764 0.273958 19.7368 0.266458 19.6959 0.258125C19.6543 0.249792 19.6139 0.241458 19.5718 0.239375C19.5589 0.239375 19.5468 0.234375 19.5339 0.234375H1.20052C1.18719 0.234375 1.17469 0.239792 1.16135 0.240208C1.1201 0.242292 1.08052 0.250208 1.03969 0.258542C0.998437 0.266875 0.958021 0.274375 0.918854 0.288542C0.906354 0.293125 0.893437 0.292708 0.881354 0.297708C0.856771 0.308125 0.837187 0.325625 0.813854 0.338125C0.775937 0.358125 0.739271 0.378125 0.705104 0.403542C0.672604 0.427708 0.644688 0.455208 0.616354 0.483958C0.588021 0.512292 0.560521 0.540208 0.535938 0.572708C0.510521 0.606875 0.490521 0.643542 0.470521 0.681458C0.458021 0.704792 0.440104 0.723958 0.430104 0.748958C0.425104 0.761042 0.425104 0.773958 0.420937 0.786458C0.406771 0.825625 0.399271 0.866042 0.390937 0.907292C0.383021 0.948125 0.374687 0.987708 0.372604 1.02896C0.372187 1.04229 0.367188 1.05437 0.367188 1.06771V14.401C0.367188 14.4556 0.373021 14.5102 0.383437 14.5644C0.388438 14.589 0.397604 14.6119 0.404688 14.6356C0.413021 14.664 0.419687 14.6923 0.430937 14.7198C0.442604 14.7477 0.458438 14.7731 0.473021 14.7998C0.484687 14.821 0.493854 14.8431 0.507604 14.8635C0.568438 14.9548 0.647187 15.0335 0.738437 15.0944C0.758854 15.1081 0.781354 15.1177 0.803021 15.1294C0.829271 15.1435 0.854271 15.1594 0.882187 15.171C0.909687 15.1823 0.938437 15.189 0.966771 15.1973C0.990521 15.2044 1.01344 15.2135 1.03802 15.2185C1.09135 15.2285 1.14594 15.2344 1.20052 15.2344H19.5339C19.5884 15.2344 19.643 15.2285 19.6972 15.2181C19.7218 15.2131 19.7447 15.204 19.7684 15.1969C19.7968 15.1885 19.8255 15.1819 19.853 15.1706C19.8805 15.159 19.9059 15.1435 19.9322 15.129C19.9539 15.1173 19.9759 15.1077 19.9968 15.094C20.088 15.0327 20.1668 14.9544 20.2276 14.8631C20.2414 14.8427 20.2505 14.8206 20.2622 14.7994C20.2768 14.7731 20.2926 14.7477 20.3043 14.7194C20.3155 14.6919 20.3222 14.6635 20.3305 14.6352C20.3376 14.6115 20.3468 14.5885 20.3518 14.564C20.3614 14.5102 20.3672 14.4556 20.3672 14.401V1.06771C20.3672 1.05437 20.3622 1.04229 20.3614 1.02896ZM17.5218 1.90104L11.2039 8.21937C10.7426 8.68021 9.99219 8.68021 9.53052 8.21937L3.2126 1.90104H17.5218ZM2.03385 3.07979L6.68885 7.73438L2.03385 12.3894V3.07979ZM3.21219 13.5677L7.86719 8.91271L8.35219 9.39771C8.42177 9.46729 8.49385 9.53229 8.56844 9.59313C9.61177 10.444 11.1226 10.444 12.1659 9.59313C12.2405 9.53229 12.3126 9.46729 12.3822 9.39771L12.8672 8.91271L17.5222 13.5677H3.21219ZM18.7005 12.3894L14.0455 7.73438L18.7005 3.07979V12.3894Z" fill="#D4AF5E"/>
</svg>
