<svg width="20" height="15" viewBox="0 0 20 15" fill="none" xmlns="http://www.w3.org/2000/svg">
<path d="M19.9942 0.794583C19.9921 0.753333 19.9842 0.71375 19.9758 0.672917C19.9675 0.631667 19.96 0.59125 19.9458 0.552083C19.9412 0.539583 19.9417 0.526667 19.9367 0.514583C19.9262 0.49 19.9087 0.470417 19.8962 0.447083C19.8762 0.409167 19.8563 0.3725 19.8308 0.338333C19.8067 0.305833 19.7792 0.277917 19.7504 0.249583C19.7221 0.22125 19.6942 0.19375 19.6617 0.169167C19.6275 0.14375 19.5908 0.12375 19.5529 0.10375C19.5296 0.09125 19.5104 0.0733333 19.4854 0.0633333C19.4733 0.0583333 19.46 0.0583334 19.4479 0.0537501C19.4092 0.0395834 19.3696 0.0320834 19.3287 0.0237501C19.2871 0.0154167 19.2467 0.00708337 19.2046 0.00500003C19.1917 0.00500003 19.1796 0 19.1667 0H0.833333C0.82 0 0.8075 0.00541664 0.794167 0.00583331C0.752917 0.00791664 0.713333 0.0158334 0.6725 0.0241667C0.63125 0.0325 0.590833 0.04 0.551667 0.0541667C0.539167 0.05875 0.52625 0.0583333 0.514167 0.0633333C0.489583 0.07375 0.47 0.09125 0.446667 0.10375C0.40875 0.12375 0.372083 0.14375 0.337917 0.169167C0.305417 0.193333 0.2775 0.220833 0.249167 0.249583C0.220833 0.277917 0.193333 0.305833 0.16875 0.338333C0.143333 0.3725 0.123333 0.409167 0.103333 0.447083C0.0908333 0.470417 0.0729167 0.489583 0.0629167 0.514583C0.0579167 0.526667 0.0579167 0.539583 0.05375 0.552083C0.0395833 0.59125 0.0320833 0.631667 0.02375 0.672917C0.0158333 0.71375 0.0075 0.753333 0.00541667 0.794583C0.005 0.807917 0 0.82 0 0.833333V14.1667C0 14.2212 0.00583333 14.2758 0.01625 14.33C0.02125 14.3546 0.0304167 14.3775 0.0375 14.4012C0.0458333 14.4296 0.0525 14.4579 0.06375 14.4854C0.0754167 14.5133 0.09125 14.5387 0.105833 14.5654C0.1175 14.5867 0.126667 14.6088 0.140417 14.6292C0.20125 14.7204 0.28 14.7992 0.37125 14.86C0.391667 14.8738 0.414167 14.8833 0.435833 14.895C0.462083 14.9092 0.487083 14.925 0.515 14.9367C0.5425 14.9479 0.57125 14.9546 0.599583 14.9629C0.623333 14.97 0.64625 14.9792 0.670833 14.9842C0.724167 14.9942 0.77875 15 0.833333 15H19.1667C19.2212 15 19.2758 14.9942 19.33 14.9837C19.3546 14.9787 19.3775 14.9696 19.4012 14.9625C19.4296 14.9542 19.4583 14.9475 19.4858 14.9362C19.5133 14.9246 19.5387 14.9092 19.565 14.8946C19.5867 14.8829 19.6087 14.8733 19.6296 14.8596C19.7208 14.7983 19.7996 14.72 19.8604 14.6287C19.8742 14.6083 19.8833 14.5863 19.895 14.565C19.9096 14.5388 19.9254 14.5133 19.9371 14.485C19.9483 14.4575 19.955 14.4292 19.9633 14.4008C19.9704 14.3771 19.9796 14.3542 19.9846 14.3296C19.9942 14.2758 20 14.2212 20 14.1667V0.833333C20 0.82 19.995 0.807917 19.9942 0.794583ZM17.1546 1.66667L10.8367 7.985C10.3754 8.44583 9.625 8.44583 9.16333 7.985L2.84542 1.66667H17.1546ZM1.66667 2.84542L6.32167 7.5L1.66667 12.155V2.84542ZM2.845 13.3333L7.5 8.67833L7.985 9.16333C8.05458 9.23292 8.12667 9.29792 8.20125 9.35875C9.24458 10.2096 10.7554 10.2096 11.7987 9.35875C11.8733 9.29792 11.9454 9.23292 12.015 9.16333L12.5 8.67833L17.155 13.3333H2.845ZM18.3333 12.155L13.6783 7.5L18.3333 2.84542V12.155Z" fill="white"/>
</svg>
