<svg width="13" height="20" viewBox="0 0 13 20" fill="none" xmlns="http://www.w3.org/2000/svg">
<path d="M10.4167 0H2.08333C0.934583 0 0 0.934583 0 2.08333V17.9167C0 19.0654 0.934583 20 2.08333 20H10.4167C11.5654 20 12.5 19.0654 12.5 17.9167V2.08333C12.5 0.934583 11.5654 0 10.4167 0ZM10.8333 17.9167C10.8333 18.1462 10.6467 18.3333 10.4167 18.3333H2.08333C1.85333 18.3333 1.66667 18.1462 1.66667 17.9167V4.58333H10.8333V17.9167ZM10.8333 2.91667H1.66667V2.08333C1.66667 1.85375 1.85333 1.66667 2.08333 1.66667H10.4167C10.6467 1.66667 10.8333 1.85375 10.8333 2.08333V2.91667Z" fill="white"/>
</svg>
