<svg width="22" height="22" viewBox="0 0 22 22" fill="none" xmlns="http://www.w3.org/2000/svg">
<path fill-rule="evenodd" clip-rule="evenodd" d="M4.42397 0.665161C2.04909 0.665161 0.14502 2.7233 0.14502 5.21846V17.0403C0.14502 19.5355 2.04909 21.5936 4.42401 21.5936H12.3557C13.8765 21.5936 15.0886 20.2862 15.0886 18.71V5.19053C15.0886 4.44449 15.6278 3.88454 16.235 3.88454C16.8422 3.88454 17.3815 4.44449 17.3815 5.19053V14.3166C17.3815 15.9584 18.643 17.3196 20.225 17.3196C20.6936 17.3196 21.0735 16.9397 21.0735 16.4711C21.0735 16.0025 20.6936 15.6226 20.225 15.6226C19.6178 15.6226 19.0785 15.0627 19.0785 14.3166V5.19053C19.0785 3.54872 17.817 2.18756 16.235 2.18756C14.6531 2.18756 13.3916 3.54872 13.3916 5.19053V18.71C13.3916 19.3909 12.9013 19.8966 12.3557 19.8966H9.50578C9.51256 19.8306 9.51607 19.7636 9.51607 19.6957V16.1076C9.51607 15.0724 8.711 14.2097 7.69583 14.2097H5.62027C5.55603 14.2097 5.43289 14.1306 5.43289 13.9395V8.31923C5.43289 8.12808 5.55603 8.04903 5.62027 8.04903H7.69583C8.71095 8.04903 9.51607 7.18633 9.51607 6.1511V2.56308C9.51607 1.52786 8.711 0.665161 7.69583 0.665161H4.42397ZM1.842 5.21846C1.842 3.62144 3.02175 2.36214 4.42401 2.36214H5.44197V6.36072C4.47675 6.45507 3.73596 7.30758 3.73596 8.31923V13.9395C3.73596 14.9511 4.47675 15.8036 5.44197 15.898V19.8966H4.42401C3.02175 19.8966 1.842 18.6373 1.842 17.0403V5.21846ZM7.13891 6.35209V2.36214H7.69583C7.71241 2.36214 7.73885 2.36969 7.76706 2.40377C7.79566 2.43832 7.81909 2.49393 7.81909 2.56308V6.15114C7.81909 6.22027 7.79566 6.27589 7.76706 6.31045C7.73884 6.34454 7.71239 6.35209 7.69583 6.35209H7.13891ZM7.13891 19.8967V15.9067H7.69583C7.71241 15.9067 7.73885 15.9143 7.76706 15.9483C7.79566 15.9829 7.81909 16.0385 7.81909 16.1077V19.6957C7.81909 19.7648 7.79566 19.8205 7.76706 19.855C7.73884 19.8891 7.71239 19.8967 7.69583 19.8967H7.13891Z" fill="white"/>
</svg>
