<svg width="26" height="26" viewBox="0 0 26 26" fill="none" xmlns="http://www.w3.org/2000/svg">
<path d="M12.5332 7.34307C12.5332 7.27116 12.5707 7.2134 12.645 7.16732C12.72 7.12278 12.8169 7.1009 12.9356 7.1009C13.0653 7.1009 13.17 7.12278 13.249 7.16732C13.3287 7.2134 13.3677 7.27124 13.3677 7.34307V9.14462C13.3677 9.2337 13.3287 9.30398 13.2505 9.35478C13.1724 9.40481 13.0677 9.43056 12.9356 9.43056C12.8068 9.43056 12.7068 9.40636 12.6372 9.35556C12.5684 9.3063 12.5332 9.23601 12.5332 9.14462V7.34307Z" fill="#D4AF5E"/>
<path d="M10.1144 13.897H9.32541V17.1642H8.56216V13.897H7.77311V13.3399H10.1145L10.1144 13.897Z" fill="#D4AF5E"/>
<path d="M12.4692 17.2095H11.6465V16.8704C11.4934 16.9955 11.3364 17.0915 11.1707 17.1556C11.0074 17.2228 10.8481 17.2548 10.6934 17.2548C10.5028 17.2548 10.3606 17.2087 10.2637 17.1158C10.1684 17.0244 10.1192 16.8869 10.1192 16.7033V14.1236H10.9419V16.49C10.9419 16.5635 10.959 16.615 10.9919 16.6478C11.0279 16.6814 11.0848 16.6962 11.1615 16.6962C11.2209 16.6962 11.2989 16.6751 11.3911 16.6313C11.484 16.5883 11.5693 16.5337 11.6466 16.4657V14.1228H12.4692L12.4692 17.2095Z" fill="#D4AF5E"/>
<path fill-rule="evenodd" clip-rule="evenodd" d="M15.5832 16.622C15.5832 16.8243 15.5191 16.9782 15.3918 17.0869C15.266 17.1954 15.0801 17.2485 14.8402 17.2485C14.6801 17.2485 14.5379 17.2282 14.4144 17.1868C14.2903 17.1455 14.173 17.0814 14.0668 16.9931V17.2118H13.2457V13.3399H14.0668V14.5876C14.1777 14.5017 14.2941 14.4345 14.4152 14.3892C14.5394 14.3431 14.6644 14.3212 14.7902 14.3212C15.0472 14.3212 15.2433 14.3814 15.3785 14.5025C15.5152 14.6244 15.5832 14.8033 15.5832 15.0369V16.622ZM14.4066 14.7743L14.2339 14.8024L14.066 14.8892V16.6688C14.0912 16.6866 14.1164 16.7027 14.1413 16.7169C14.1811 16.7397 14.2205 16.7576 14.259 16.7696L14.4551 16.8001C14.5551 16.8001 14.6278 16.7805 14.6746 16.7391C14.7207 16.6993 14.7449 16.6337 14.7449 16.5438V15.068C14.7449 14.9704 14.7176 14.8977 14.6598 14.8485C14.6004 14.7993 14.5168 14.7743 14.4066 14.7743Z" fill="#D4AF5E"/>
<path fill-rule="evenodd" clip-rule="evenodd" d="M18.7129 15.7509H17.1973V16.3087C17.1973 16.4642 17.2223 16.572 17.2746 16.6329C17.3277 16.693 17.4176 16.7227 17.5434 16.7227C17.6762 16.7227 17.7669 16.697 17.82 16.6462C17.8715 16.5946 17.8997 16.4829 17.8997 16.3079V16.1735H18.7145V16.3251C18.7145 16.6282 18.6169 16.8564 18.4153 17.0102C18.2169 17.1633 17.9199 17.2399 17.5254 17.2399C17.17 17.2399 16.8903 17.1586 16.6864 16.9961C16.4833 16.8352 16.3802 16.6102 16.3802 16.3258V14.9961C16.3802 14.7406 16.4926 14.5297 16.7177 14.368C16.9419 14.2071 17.2294 14.1266 17.5849 14.1266C17.9473 14.1266 18.2262 14.2016 18.4216 14.3509C18.6161 14.5001 18.713 14.7157 18.713 14.9954L18.7129 15.7509ZM17.3153 14.7254C17.3707 14.6707 17.4606 14.6441 17.5872 14.6441C17.7075 14.6441 17.7972 14.6707 17.8512 14.7254C17.9059 14.7785 17.9348 14.8668 17.9348 14.991V15.2895H17.234V14.991C17.234 14.8668 17.2606 14.7778 17.3153 14.7254Z" fill="#D4AF5E"/>
<path fill-rule="evenodd" clip-rule="evenodd" d="M13.248 0.0537109C20.152 0.0537109 25.748 5.65058 25.748 12.5538C25.748 19.4569 20.152 25.0537 13.248 25.0537C6.34406 25.0537 0.748047 19.4568 0.748047 12.5538C0.748047 5.65067 6.34414 0.0537109 13.248 0.0537109ZM12.9464 10.211C13.3417 10.211 13.6512 10.0852 13.8777 9.90633C14.1028 9.72663 14.2152 9.48214 14.2152 9.16805V7.2727C14.2152 6.9938 14.1004 6.76329 13.8715 6.586C13.641 6.40862 13.3464 6.3204 12.9855 6.3204C12.591 6.3204 12.2754 6.40398 12.0418 6.57192C11.8074 6.74064 11.6902 6.96565 11.6902 7.25082V9.15234C11.6902 9.4648 11.8042 9.7117 12.0323 9.89689C12.2605 10.0821 12.566 10.211 12.9464 10.211ZM15.5622 10.2087C15.6959 10.2087 15.832 10.1348 15.973 10.0583L15.9895 10.0493C16.138 9.96803 16.2793 9.84926 16.4153 9.69462V10.1157H17.1536V6.3149H16.4153V9.20006C16.3466 9.2821 16.27 9.35006 16.188 9.40396C16.1044 9.45708 16.0357 9.48446 15.9818 9.48446C15.9123 9.48446 15.8615 9.46489 15.8318 9.42352C15.8005 9.3837 15.7834 9.31883 15.7834 9.22975V6.31568H15.0466V9.49149C15.0466 9.71805 15.0912 9.88762 15.1763 10.0001C15.2629 10.1133 15.391 10.2087 15.5622 10.2087ZM17.709 11.7798H8.78708C7.36836 11.7798 6.21911 12.8853 6.21911 14.247V16.333C6.21911 17.6955 7.36836 18.801 8.78708 18.801H17.7089C19.1269 18.801 20.2769 17.6955 20.2769 16.333V14.247C20.277 12.8852 19.127 11.7798 17.709 11.7798ZM9.6723 10.2196H10.6044V7.94851L11.6895 4.7454H10.7418L10.1652 6.9345H10.1058L9.50119 4.7454H8.56133L9.67222 8.05089L9.6723 10.2196Z" fill="#D4AF5E"/>
</svg>
